# ProBuilder 4.5.2
# https://unity3d.com/unity/features/worldbuilding/probuilder
# 4/12/2022 7:47:21 PM

mtllib ./Stage1.mtl
o Stage1

g Stage1
v -7.25 6.5 5
v -7.25 6.5 -5
v -7.25 0 -5
v -7.25 0 5
v 5 6.5 -5
v 5 6.5 5
v 5 0 5
v 5 0 -5
v -4 0 5
v -6.5 0 5
v -4 0 5.5
v -6.5 0 5.5
v -4 4 5
v -6.5 4 5
v -6.5 4 5.5
v -4 4 5.5

vt 0.5025381 0.8172589
vt 0.9086294 0.8172589
vt 0.9086294 0.5532995
vt 0.5025381 0.5532995
vt 0.4974619 0.4111676
vt 0 0.4111676
vt 0 0.8172589
vt 0.4974619 0.8172589
vt 0 0.4060914
vt 0 0
vt 0.3654822 0.4060914
vt 0.4974619 0
vt 0.4670051 0.4060914
vt 0.1626449 0.8274112
vt 0.2641027 0.8274112
vt 0.1626449 0.8477157
vt 0.2641027 0.8477157
vt 0.4974619 0.4060914
vt 0.5025381 0.5482234
vt 0.8680203 0.284264
vt 0.5025381 0.284264
vt 0.9695432 0.284264
vt 1 0.284264
vt 0.8680203 0.4467005
vt 1 0.5482234
vt 0.9695432 0.4467005
vt 0.4261227 0.8274112
vt 0.5276455 0.8274112
vt 0.4261227 0.8477157
vt 0.5276455 0.8477157
vt 0.2636861 0.8477157
vt 0.2636861 0.8274112
vt 0.000273264 0.8477157
vt 0.000273264 0.8274112
vt 1 0.005076142
vt 1 0.2690355
vt 0.5025381 0.2690355
vt 0.5025381 0.005076142

vn 1 0 0
vn -1 0 0
vn 0 -1 0
vn 0 1 0
vn 0 0 -1
vn 0 0 1

usemtl Floor
f 13/24/5 14/26/5 1/25/5
f 14/26/5 10/22/5 4/23/5
f 1/25/5 14/26/5 4/23/5
f 7/21/5 9/20/5 13/24/5
f 6/19/5 7/21/5 13/24/5
f 6/19/5 13/24/5 1/25/5
f 3/12/4 10/13/4 9/11/4
f 3/12/4 4/18/4 10/13/4
f 3/12/4 9/11/4 7/9/4
f 8/10/4 3/12/4 7/9/4
f 3/3/1 2/2/1 1/1/1
f 1/1/1 4/4/1 3/3/1
f 7/4/2 6/1/2 5/2/2
f 5/2/2 8/3/2 7/4/2
f 11/16/4 9/14/4 10/15/4
f 10/15/4 12/17/4 11/16/4
f 15/29/3 14/27/3 13/28/3
f 13/28/3 16/30/3 15/29/3
f 9/27/2 11/29/2 16/31/2
f 16/31/2 13/32/2 9/27/2
f 14/14/1 15/16/1 12/33/1
f 12/33/1 10/34/1 14/14/1
f 1/7/3 2/6/3 5/5/3
f 5/5/3 6/8/3 1/7/3
f 2/37/6 3/38/6 8/35/6
f 8/35/6 5/36/6 2/37/6

