# ProBuilder 4.5.2
# https://unity3d.com/unity/features/worldbuilding/probuilder
# 4/12/2022 7:48:05 PM

mtllib ./Stage6.mtl
o Stage6

g Stage6
v 7.25 4 110.5
v 7.25 0 110.5
v 6.75 4 110.5
v 6.75 0 110.5
v 7.25 0 108
v 7.25 4 108
v 6.75 0 108
v 6.75 4 108
v 7.25 0 105.25
v 16.5 0 105.25
v 16.5 4 105.25
v 19 4 105.25
v 19 0 105.25
v 28.25 0 105.25
v 20.75 4.5 132.75
v 22.25 4.5 132.75
v 22.25 7.5 132.75
v 20.75 6 132.75
v 10.25 6 132.75
v 14.75 0 132.75
v 16.25 0 132.75
v 16.25 1.5 132.75
v 14.75 1.5 132.75
v 8.75 7.5 132.75
v 8.75 0 132.75
v 10.25 0 132.75
v 28.25 7.5 105.25
v 7.25 7.5 105.25
v 28.25 9 105.25
v 7.25 9 105.25
v 22.25 7.5 135.25
v 22.25 4.5 135.25
v 13.25 3 132.75
v 13.25 1.5 132.75
v 13.25 3 135.25
v 13.25 1.5 135.25
v 17.75 3 132.75
v 17.75 3 135.25
v 14.75 1.5 135.25
v 16.25 1.5 135.25
v 11.75 1.5 132.75
v 11.75 4.5 132.75
v 11.75 1.5 135.25
v 11.75 4.5 135.25
v 17.75 1.5 132.75
v 17.75 1.5 135.25
v 14.75 0 135.25
v 20.75 4.5 135.25
v 20.75 6 135.25
v 10.25 6 135.25
v 16.25 0 135.25
v 10.25 0 135.25
v 8.75 0 135.25
v 8.75 7.5 135.25
v 19.25 4.5 132.75
v 19.25 3 132.75
v 19.25 4.5 135.25
v 19.25 3 135.25
v 23.75 3 132.75
v 23.75 3 135.25
v 25.25 9 132.75
v 25.25 2.75 132.75
v 25.25 9 135.25
v 25.25 2.75 135.25
v 25.25 5 132.75
v 25.25 9 131.75
v 25.25 5.5 131.75
v 28.25 5.5 131.75
v 28.25 5 132.75
v 23.75 5.5 131.75
v 23.75 9 131.75
v 28.25 0 131.75
v 23.75 0 131.75
v 23.75 0 132.75
v 23.75 9 135.25
v 23.75 9 133.25
v 23.75 1.5 132.75
v 28.25 1.5 132.75
v 23.75 1.5 135.25
v 28.25 1.5 135.25
v 23.75 0 135.25
v 28.25 3 118.5
v 28.25 0 123
v 7.25 0 123
v 7.25 3 118.5
v 7.25 0 135.25
v 7.25 0 132.75
v 7.25 9 135.25
v 7.25 9 132.75
v 28.25 9 135.25
v 18 1.5 135.2499
v 28.25 0 112.5
v 23 0 112.5
v 7.25 0 112.5
v 28.25 3 117
v 23 3 117
v 7.25 3 117
v 28.25 9 112.5
v 28.25 9 117
v 28.25 9 118.5
v 28.25 9 123
v 28.25 9 132
v 28.25 9 133.75
v 23 5.5 112.5
v 7.25 5.5 112.5
v 7.25 9 118.5
v 7.25 9 117
v 7.25 9 112.5

vt 0.567696 0.6840855
vt 0.567696 0.760095
vt 0.5581948 0.6840855
vt 0.5581948 0.760095
vt 0.567696 0.5605701
vt 0.567696 0.6365796
vt 0.5581948 0.5605701
vt 0.5581948 0.6365796
vt 0.567696 0.5130641
vt 0.5581948 0.5130641
vt 0.5985748 0.5700713
vt 0.7743468 0.5700713
vt 0.7743468 0.6460807
vt 0.8218527 0.6460807
vt 0.8218527 0.5700713
vt 0.9976247 0.5700713
vt 0.3420427 0.08551069
vt 0.3135392 0.08551069
vt 0.3135392 0.1425178
vt 0.3420427 0.1140143
vt 0.5415677 0.1140143
vt 0.456057 0
vt 0.4275534 0
vt 0.4275534 0.02850356
vt 0.456057 0.02850356
vt 0.5700713 0.1425178
vt 0.5700713 0
vt 0.5415677 0
vt 0.9976247 0.7125891
vt 0.5985748 0.7125891
vt 0.9976247 0.7410926
vt 0.5985748 0.7410926
vt 0.912114 0.807601
vt 0.9691212 0.807601
vt 0.912114 0.760095
vt 0.9691212 0.760095
vt 0.9976247 0.807601
vt 0.9976247 0.760095
vt 0.8266034 0.760095
vt 0.8266034 0.807601
vt 1 0.807601
vt 0.8004751 0.807601
vt 1 0.8551069
vt 0.8004751 0.8551069
vt 0.7125891 0.807601
vt 0.7125891 0.760095
vt 0.5700713 0.760095
vt 0.5700713 0.807601
vt 0.543943 0.807601
vt 0.543943 0.8551069
vt 0.4845606 0.05700713
vt 0.5130641 0.08551069
vt 0.3990499 0.05700713
vt 0.3705463 0.08551069
vt 0.5130641 0.02850356
vt 0.4845606 0.02850356
vt 0.04750594 0.199525
vt 0.04750594 0.08076011
vt 0 0.199525
vt 0 0.08076011
vt 0.04750594 0.1235155
vt 0.06650832 0.199525
vt 0.06650832 0.1330166
vt 0.9546821 0.8029631
vt 0.1995249 0.1045131
vt 0.1995249 0.1710214
vt 0.1710214 0.1710214
vt 0.1710214 0.1045131
vt 0.1140143 0.1045131
vt 0.1140143 0
vt 0.1995249 0
vt 0.09501188 0.1140143
vt 0.09501188 0.1710214
vt 0.1140143 0.1710214
vt 0.1140143 0.06650832
vt 0.04750594 0.1140143
vt 0.04750594 0
vt 0.08551069 0
vt 0.09501188 0.1425178
vt 0.2850356 0.05700713
vt 0.3990499 0.02850356
vt 0.3705463 0.05700713
vt 0.2850356 0.02850356
vt 0.02850349 0.7648456
vt 0.02850349 0.8503563
vt 0.4275534 0.8503563
vt 0.4275534 0.7648456
vt 0.02850349 0.3420427
vt 0.07600943 0.3420427
vt 0.02850349 0.5130641
vt 0.07600943 0.5130641
vt 0.2565321 0.05225653
vt 0.2565321 0.1710214
vt 0.1995249 0.02850356
vt 0.2850356 0
vt 0.5985748 0
vt 0.5985748 0.1710214
vt 0.2850356 0.1710214
vt 0.3942993 0.02850356
vt 0.2042755 0.5130641
vt 0.02850349 0.6508313
vt 0.128266 0.6508313
vt 0.4275534 0.6508313
vt 0.4275534 0.6128266
vt 0.4275534 0.5653206
vt 0.4275534 0.5130641
vt 0.2517814 0.5130641
vt 0.02850349 0.7363421
vt 0.128266 0.7363421
vt 0.4275534 0.7363421
vt 0.02850356 0.1995249
vt 0.06650832 0.2660333
vt 0.09501188 0.2755345
vt 0.2612827 0.1710214
vt 0.3467934 0.2280285
vt 0.375297 0.2280285
vt 0.4608077 0.1710214
vt 0.5985748 0.3135392
vt 0.5985748 0.3420427
vt 0.4608077 0.3420427
vt 0.375297 0.3420427
vt 0.3467934 0.3420427
vt 0.2612827 0.3420427
vt 0.09026128 0.3420427
vt 0.05700713 0.3420427
vt 0.5320665 0.5130641
vt 0.5320665 0.8123515
vt 0.4275534 0.8123515
vt 0.4988123 0.3420427
vt 0.4608075 0.4465558
vt 0.3752968 0.3990499
vt 0.3467933 0.3990499
vt 0.3467933 0.5130641
vt 0.3752968 0.5130641
vt 0.4608075 0.5130641
vt 0.5985748 0.5130641
vt 0.5985748 0.4845606
vt 0.5463183 0.3420427
vt 0.5463183 0.4180523
vt 0.4988123 0.4180523
vt 0.9406176 0.5700713
vt 0.9406176 0.5225653
vt 0.9406176 0.5035629
vt 0.912114 0.5035629
vt 0.912114 0.5320665
vt 0.912114 0.5700713
vt 0.5985748 0.5225653
vt 0.5985748 0.2517815
vt 0.5985748 0.2232779
vt 0.5985748 0.1377672
vt 0.9976247 0
vt 0.9976247 0.1377672
vt 0.9976247 0.2232779
vt 0.9976247 0.2517815
vt 0.9976247 0.3372922
vt 0.9976247 0.5083135
vt 0.9976247 0.5415677

vn 0 0 -1
vn 0 0 1
vn 0 1 0
vn 0 -1 0
vn 1 0 0
vn -1 0 0
vn 0 0.8944272 0.4472136
vn 0.6401839 -0.7682217 0
vn -0.3162278 0.9486833 0
vn 0 0.8320503 0.5547002
vn -0.0001424153 0.0001186795 -0.9999999
vn 0 0.8320503 -0.5547002
vn 0 0.8741573 0.4856429

usemtl Floor
f 29/31/2 28/30/2 27/29/2
f 29/31/2 30/32/2 28/30/2
f 9/11/2 10/12/2 11/13/2
f 28/30/2 9/11/2 11/13/2
f 12/14/2 13/15/2 14/16/2
f 12/14/2 14/16/2 27/29/2
f 11/13/2 12/14/2 27/29/2
f 28/30/2 11/13/2 27/29/2
f 17/19/1 16/18/1 18/20/1
f 16/18/1 15/17/1 18/20/1
f 18/20/1 19/21/1 17/19/1
f 19/21/1 26/28/1 24/26/1
f 26/28/1 25/27/1 24/26/1
f 17/19/1 19/21/1 24/26/1
f 64/60/5 62/58/5 65/61/5
f 63/59/5 64/60/5 65/61/5
f 63/59/5 65/61/5 61/57/5
f 73/74/6 74/73/6 77/79/6
f 73/74/6 77/79/6 59/72/6
f 70/75/6 73/74/6 59/72/6
f 60/76/6 70/75/6 59/72/6
f 75/77/6 70/75/6 60/76/6
f 70/75/6 75/77/6 76/78/6
f 76/78/6 71/70/6 70/75/6
f 66/67/1 67/68/1 71/66/1
f 67/68/1 70/65/1 71/66/1
f 73/71/1 70/65/1 67/68/1
f 73/71/1 67/68/1 72/70/1
f 68/69/1 72/70/1 67/68/1
f 69/64/2 65/64/2 62/64/2
f 69/64/2 62/64/2 78/64/2
f 78/64/2 62/64/2 74/64/2
f 62/64/2 77/64/2 74/64/2
f 56/82/1 77/83/1 45/81/1
f 59/80/1 77/83/1 56/82/1
f 37/53/1 55/54/1 45/81/1
f 55/54/1 56/82/1 45/81/1
f 37/53/1 33/51/1 55/54/1
f 33/51/1 42/52/1 55/54/1
f 42/52/1 33/51/1 41/55/1
f 33/51/1 34/56/1 41/55/1
f 31/19/1 88/97/1 75/98/1
f 31/19/1 54/26/1 88/97/1
f 54/26/1 86/96/1 88/97/1
f 86/96/1 54/26/1 53/27/1
f 75/98/1 60/80/1 31/19/1
f 60/80/1 32/18/1 31/19/1
f 60/80/1 48/17/1 32/18/1
f 58/82/1 48/17/1 60/80/1
f 58/82/1 57/54/1 48/17/1
f 49/20/1 48/17/1 57/54/1
f 49/20/1 57/54/1 44/52/1
f 49/20/1 44/52/1 50/21/1
f 50/21/1 44/52/1 43/55/1
f 43/55/1 52/28/1 50/21/1
f 47/22/1 52/28/1 43/55/1
f 47/22/1 43/55/1 36/56/1
f 39/25/1 47/22/1 36/56/1
f 39/25/1 36/56/1 35/51/1
f 39/25/1 35/51/1 38/53/1
f 38/53/1 40/24/1 39/25/1
f 38/53/1 46/81/11 40/24/1
f 51/23/11 40/24/1 46/81/11
f 46/81/11 91/99/11 51/23/11
f 51/23/11 91/99/11 81/95/1
f 79/83/1 81/95/1 91/99/11
f 79/83/1 64/92/1 81/95/1
f 81/95/1 64/92/1 80/94/1
f 80/94/1 64/92/1 90/66/1
f 64/92/1 63/93/1 90/66/1
f 92/101/3 14/90/3 13/100/3
f 93/102/3 2/104/3 94/103/3
f 10/107/3 9/106/3 5/105/3
f 10/107/3 5/105/3 2/104/3
f 93/102/3 10/107/3 2/104/3
f 93/102/3 13/100/3 10/107/3
f 92/101/3 13/100/3 93/102/3
f 82/84/3 95/108/3 96/109/3
f 96/109/3 97/110/3 85/87/3
f 82/84/3 96/109/3 85/87/3
f 69/112/6 78/62/6 80/111/6
f 90/88/6 69/112/6 80/111/6
f 90/88/6 103/125/6 69/112/6
f 103/125/6 68/113/6 69/112/6
f 103/125/6 102/124/6 68/113/6
f 101/123/6 68/113/6 102/124/6
f 83/114/6 72/73/6 68/113/6
f 68/113/6 101/123/6 83/114/6
f 83/114/6 101/123/6 82/115/6
f 101/123/6 100/122/6 82/115/6
f 99/121/6 82/115/6 100/122/6
f 99/121/6 95/116/6 82/115/6
f 98/120/6 95/116/6 99/121/6
f 98/120/6 92/117/6 95/116/6
f 27/118/6 14/97/6 92/117/6
f 98/120/6 27/118/6 92/117/6
f 98/120/6 29/119/6 27/118/6
f 28/137/5 30/136/5 108/135/5
f 6/139/5 28/137/5 108/135/5
f 6/139/5 9/119/5 28/137/5
f 6/139/5 5/138/5 9/119/5
f 108/135/5 1/140/5 6/139/5
f 108/135/5 105/130/5 1/140/5
f 105/130/5 108/135/5 107/134/5
f 97/131/5 105/130/5 107/134/5
f 85/132/5 97/131/5 107/134/5
f 106/133/5 85/132/5 107/134/5
f 84/123/5 85/132/5 106/133/5
f 89/91/5 84/123/5 106/133/5
f 89/91/5 87/89/5 84/123/5
f 94/120/5 1/140/5 105/130/5
f 94/120/5 2/129/5 1/140/5
f 96/131/5 93/120/5 104/130/5
f 103/157/4 90/16/4 63/141/4
f 61/142/4 103/157/4 63/141/4
f 61/142/4 102/156/4 103/157/4
f 66/143/4 102/156/4 61/142/4
f 66/143/4 101/155/4 102/156/4
f 101/155/4 66/143/4 71/144/4
f 101/155/4 71/144/4 106/148/4
f 106/148/4 100/154/4 101/155/4
f 106/148/4 107/149/4 100/154/4
f 107/149/4 99/153/4 100/154/4
f 107/149/4 108/150/4 99/153/4
f 108/150/4 98/152/4 99/153/4
f 108/150/4 30/96/4 98/152/4
f 30/96/4 29/151/4 98/152/4
f 89/147/4 106/148/4 71/144/4
f 89/147/4 71/144/4 76/145/4
f 89/147/4 76/145/4 88/11/4
f 76/145/4 75/146/4 88/11/4
f 3/3/1 1/1/1 2/2/1
f 2/2/1 4/4/1 3/3/1
f 7/7/2 5/5/2 6/6/2
f 6/6/2 8/8/2 7/7/2
f 7/3/3 4/8/3 2/6/3
f 2/6/3 5/1/3 7/3/3
f 6/9/4 1/5/4 3/7/4
f 3/7/4 8/10/4 6/9/4
f 23/25/1 22/24/1 21/23/1
f 21/23/1 20/22/1 23/25/1
f 32/36/5 16/34/5 17/33/5
f 17/33/5 31/35/5 32/36/5
f 36/38/5 34/37/5 33/34/5
f 33/34/5 35/36/5 36/38/5
f 35/40/4 33/39/4 37/35/4
f 37/35/4 38/33/4 35/40/4
f 40/34/3 22/36/3 23/38/3
f 23/38/3 39/37/3 40/34/3
f 44/33/6 42/35/6 41/36/6
f 41/36/6 43/34/6 44/33/6
f 38/34/6 37/36/6 45/38/6
f 45/38/6 46/37/6 38/34/6
f 39/34/6 23/36/6 20/38/6
f 20/38/6 47/37/6 39/34/6
f 49/34/6 18/36/6 15/38/6
f 15/38/6 48/37/6 49/34/6
f 50/44/4 19/42/4 18/41/4
f 18/41/4 49/43/4 50/44/4
f 51/38/5 21/37/5 22/34/5
f 22/34/5 40/36/5 51/38/5
f 43/34/4 41/36/4 34/38/4
f 34/38/4 36/37/4 43/34/4
f 52/39/5 26/40/5 19/45/5
f 19/45/5 50/46/5 52/39/5
f 54/48/6 24/47/6 25/46/6
f 25/46/6 53/45/6 54/48/6
f 48/34/4 15/36/4 16/38/4
f 16/38/4 32/37/4 48/34/4
f 58/38/5 56/37/5 55/34/5
f 55/34/5 57/36/5 58/38/5
f 60/40/3 59/39/3 56/35/3
f 56/35/3 58/33/3 60/40/3
f 57/48/3 55/47/3 42/46/3
f 42/46/3 44/45/3 57/48/3
f 31/50/3 17/49/3 24/42/3
f 24/42/3 54/44/3 31/50/3
f 66/62/5 61/57/5 65/61/5
f 65/61/5 67/63/5 66/62/5
f 68/64/7 67/64/7 65/64/7
f 65/64/7 69/64/7 68/64/7
f 64/37/8 79/34/8 77/36/8
f 77/36/8 62/38/8 64/37/8
f 79/40/4 46/45/4 45/46/4
f 45/46/4 77/39/4 79/40/4
f 80/40/9 78/39/9 74/35/9
f 74/35/9 81/33/9 80/40/9
f 83/85/10 82/84/10 85/87/10
f 85/87/10 84/86/10 83/85/10
f 81/48/3 74/47/3 21/46/3
f 21/46/3 51/45/3 81/48/3
f 47/40/3 20/39/3 26/35/3
f 26/35/3 52/33/3 47/40/3
f 86/37/3 53/34/3 25/36/3
f 25/36/3 87/38/3 86/37/3
f 88/90/5 86/88/5 87/89/5
f 87/89/5 89/91/5 88/90/5
f 104/106/1 93/126/1 94/127/1
f 94/127/1 105/128/1 104/106/1
f 105/103/13 97/110/13 96/109/13
f 96/109/13 104/102/13 105/103/13
f 95/108/12 92/101/12 93/102/12
f 93/102/12 96/109/12 95/108/12

