# ProBuilder 4.5.2
# https://unity3d.com/unity/features/worldbuilding/probuilder
# 4/11/2022 7:45:02 PM

mtllib ./Level2.3.mtl
o Level2.3

g Level2.3
v -23.5 17 1
v -10 17 1
v -23.5 17 -12.5
v -10 17 -12.5
v -19.25 8 -3.25
v -19 8 -8
v -19 8 -3.5
v -19.25 8 -8.25
v -14.5 8 -8
v -14.25 8 -8.25
v -14.25 8 -3.25
v -14.5 8 -3.5
v -19 6 -8
v -19 6 -3.5
v -19.25 7 -3.25
v -19.25 7 -8.25
v -14.5 6 -8
v -14.25 7 -8.25
v -14.5 6 -3.5
v -14.25 7 -3.25
v -23.5 7 -12.5
v -10 7 -12.5
v -23.5 7 1
v -10 7 1
v -14.25 6 -3.25
v -19.25 6 -3.25
v -14.25 6 -8.25
v -19.25 6 -8.25
v -16 5 -1.75
v -14.5 3.5 -1.75
v -14.5 5 -1.75
v -16 3.5 -1.75
v -16 3.5 -9.75
v -17.5 3.5 -9.75
v -17.5 5 -9.75
v -16 5 -9.75
v -14.5 5 -3.25
v -14.25 3.5 -3.25
v -14.25 5 -3.25
v -14.5 3.5 -3.25
v -20.75 2.5 -8
v -20.75 1 -6.5
v -20.75 2.5 -6.5
v -20.75 1 -8
v -12.75 1 -3.5
v -12.75 1 -5
v -12.75 2.5 -5
v -12.75 2.5 -3.5
v -14.25 1 -3.25
v -14.25 1 -3.5
v -14.25 2.5 -3.5
v -14.25 2.5 -3.25
v -19.25 2.5 -8.25
v -19.25 1 -8
v -19.25 2.5 -8
v -19.25 1 -8.25
v -17.5 -1.5 -1.75
v -16 0 -1.75
v -17.5 0 -1.75
v -16 -1.5 -1.75
v -17.5 -1.5 -9.75
v -19 0 -9.75
v -17.5 0 -9.75
v -19 -1.5 -9.75
v -19 -1.5 -8.25
v -19.25 0 -8.25
v -19 0 -8.25
v -19.25 -1.5 -8.25
v -20.75 -4 -5
v -20.75 -2.5 -3.5
v -20.75 -2.5 -5
v -20.75 -4 -3.5
v -12.75 -4 -5
v -12.75 -2.5 -6.5
v -12.75 -2.5 -5
v -12.75 -4 -6.5
v -19.25 -4 -3.5
v -19.25 -2.5 -3.25
v -19.25 -2.5 -3.5
v -19.25 -4 -3.25
v -16 3.5 -8.25
v -17.5 3.5 -8.25
v -17.5 5 -8.25
v -16 5 -8.25
v -16 5 -3.25
v -16 3.5 -3.25
v -14.25 1 -5
v -14.25 2.5 -5
v -19.25 1 -6.5
v -19.25 2.5 -6.5
v -17.5 0 -8.25
v -17.5 -1.5 -8.25
v -16 0 -3.25
v -17.5 0 -3.25
v -17.5 -1.5 -3.25
v -16 -1.5 -3.25
v -14.25 -2.5 -6.5
v -14.25 -2.5 -5
v -14.25 -4 -5
v -14.25 -4 -6.5
v -19.25 -2.5 -5
v -19.25 -4 -5
v -10 9 -4
v -10 16 -4
v -10 9 -7.5
v -10 16 -7.5
v -19.25 -7 -8.25
v -19.25 -4 -8.25
v -19.25 -7 -3.25
v -14.25 -7 -3.25
v -14.25 -4 -3.25
v -14.25 -4 -8.25
v -14.25 -7 -8.25
v -18.75 -6.999929 -3.75
v -18.75 -6.999929 -7.75
v -14.75 -6.999929 -7.75
v -14.75 -6.999929 -3.75
v -19.24997 -7.5 -8.249965
v -19.24997 -7.5 -3.250036
v -18.74997 -7.499929 -7.749965
v -18.74997 -7.499929 -3.750036
v -14.25004 -7.5 -8.249965
v -14.75004 -7.499929 -7.749965
v -14.25004 -7.5 -3.250036
v -14.75004 -7.499929 -3.750036
v -15.50004 -7.5 -3.25
v -17.99997 -7.5 -3.25
v -19.24993 -12.4999 -3.250071
v -19.24993 -12.4999 -8.249929
v -17.99997 -12.4999 -3.250071
v -14.25007 -12.4999 -8.249929
v -15.50004 -12.4999 -3.250071
v -14.25007 -12.4999 -3.250071
v -15.50004 -8 -3.250071
v -17.99997 -8 -3.250071
v -14.25 0 -3.25
v -14.25 -1.5 -3.25
v -19.25 -1.5 -3.25
v -19.25 0 -3.25
v -19.25 5 -3.25
v -19.25 3.5 -3.25
v -14.25 1 -8.25
v -14.25 2.5 -8.25
v -14.25 -2.5 -8.25
v -14.25 -2.5 -3.25
v -14.25 -1.5 -8.25
v -14.25 0 -8.25
v -14.25 3.5 -8.25
v -14.25 5 -8.25
v -19.25 3.5 -8.25
v -19.25 5 -8.25
v -19.25 2.5 -3.25
v -19.25 1 -3.25
v -19.25 -2.5 -8.25

vt 0 13.5
vt 13.5 13.5
vt 0 0
vt 13.5 0
vt 6.5 6.5
vt 6.25 1.75
vt 6.25 6.25
vt 6.5 1.5
vt 1.75 1.75
vt 1.5 1.5
vt 1.5 6.5
vt 1.75 6.25
vt 9 18.4999
vt 4.5 18.4999
vt 9 20.4999
vt 4.5 20.4999
vt 9.25 19.4999
vt 4.25 19.4999
vt 9.25 20.4999
vt 4.25 20.4999
vt 0 19.4999
vt 13.5 29.4999
vt 13.5 19.4999
vt 0 29.4999
vt 4.5 9
vt 9.25 9.25
vt 9 9
vt 4.25 9.25
vt 9.25 4.25
vt 4.25 4.25
vt 9 4.5
vt 4.5 4.5
vt 6 17.4999
vt 4.5 15.9999
vt 4.5 17.4999
vt 6 15.9999
vt 7.5 15.9999
vt 7.5 17.4999
vt 4.25 15.9999
vt 4.25 17.4999
vt 9 14.9999
vt 7.5 13.4999
vt 7.5 14.9999
vt 9 13.4999
vt 9.25 13.4999
vt 9.25 14.9999
vt 7.5 10.9999
vt 6 12.4999
vt 7.5 12.4999
vt 6 10.9999
vt 4.5 12.4999
vt 4.5 10.9999
vt 4.25 12.4999
vt 4.25 10.9999
vt 6 8.4999
vt 4.5 9.9999
vt 6 9.9999
vt 4.5 8.4999
vt 7.5 8.4999
vt 7.5 9.9999
vt 4.25 9.9999
vt 4.25 8.4999
vt 3.25 1.5
vt 4.75 1.5
vt 3.25 0
vt 4.75 0
vt 9.25 15.9999
vt 9.25 17.4999
vt 10.75 15.9999
vt 10.75 17.4999
vt 2.75 17.4999
vt 2.75 15.9999
vt 6 4.25
vt 7.5 4.25
vt 6 2.75
vt 7.5 2.75
vt 9 9.25
vt 7.5 9.25
vt 9 10.75
vt 7.5 10.75
vt 3.25 6.5
vt 1.75 6.5
vt 3.25 8
vt 1.75 8
vt 1.5 6.25
vt 1.5 4.75
vt 0 6.25
vt 0 4.75
vt 10.75 13.4999
vt 10.75 14.9999
vt 4.25 14.9999
vt 4.25 13.4999
vt 2.75 14.9999
vt 2.75 13.4999
vt 9.25 7.5
vt 9.25 9
vt 10.75 7.5
vt 10.75 9
vt 4.25 6
vt 4.25 4.5
vt 2.75 6
vt 2.75 4.5
vt 6.5 1.75
vt 6.5 3.25
vt 8 1.75
vt 8 3.25
vt 4.5 4.25
vt 4.5 2.75
vt 2.75 12.4999
vt 2.75 10.9999
vt 6.25 1.5
vt 6.25 0
vt 9.25 10.9999
vt 9.25 12.4999
vt 10.75 10.9999
vt 10.75 12.4999
vt 6 9.25
vt 6 10.75
vt 4.75 6.5
vt 4.75 8
vt 9.25 6
vt 10.75 6
vt 2.75 9.9999
vt 2.75 8.4999
vt 1.5 3.25
vt 0 3.25
vt 9.25 8.4999
vt 9.25 9.9999
vt 10.75 8.4999
vt 10.75 9.9999
vt 4.25 9
vt 4.25 7.5
vt 2.75 9
vt 2.75 7.5
vt 6.5 4.75
vt 6.5 6.25
vt 8 4.75
vt 8 6.25
vt 8.5 21.4999
vt 8.5 28.4999
vt 5 21.4999
vt 5 28.4999
vt 9.25 5.4999
vt 4.25 5.4999
vt 6 6
vt 6 2
vt 2 2
vt 2 6
vt 4.250034 9.249965
vt 4.750034 4.750035
vt 4.750034 8.749965
vt 9.249965 4.250035
vt 8.749965 4.750035
vt 9.249965 9.249965
vt 8.749965 8.749965
vt 7.999965 9.25
vt 5.500034 9.25
vt 6.499929 6.499929
vt 6.499929 1.500071
vt 5.249966 6.499929
vt 2.750035 6.499929
vt 1.500071 6.499929
vt 4.75 5.49997
vt 8.749966 4.99997
vt 4.750035 4.99997
vt 8.75 5.49997
vt 4.250034 4.9999
vt 9.249965 4.9999
vt 4.250071 0
vt 9.249929 0
vt 5.500035 4.4999
vt 5.500035 4.9999
vt 5.500035 0
vt 7.999966 4.4999
vt 7.999966 4.9999
vt 7.999966 0
vt 9.25 18.4999
vt 4.25 18.4999

vn 0 -1 0
vn 0 1 0
vn 1 0 0
vn -1 0 0
vn 0 0 1
vn 0 0 -1

usemtl Floor
f 3/3/1 2/2/1 1/1/1
f 3/3/1 4/4/1 2/2/1
f 7/7/2 6/6/2 5/5/2
f 6/6/2 8/8/2 5/5/2
f 6/6/2 9/9/2 8/8/2
f 9/9/2 10/10/2 8/8/2
f 12/12/2 7/7/2 11/11/2
f 7/7/2 5/5/2 11/11/2
f 9/9/2 12/12/2 10/10/2
f 12/12/2 11/11/2 10/10/2
f 6/15/3 14/14/3 13/13/3
f 6/15/3 7/16/3 14/14/3
f 5/19/4 16/18/4 15/17/4
f 5/19/4 8/20/4 16/18/4
f 9/15/5 13/14/5 17/13/5
f 9/15/5 6/16/5 13/14/5
f 8/19/6 18/18/6 16/17/6
f 8/19/6 10/20/6 18/18/6
f 7/15/6 19/14/6 14/13/6
f 7/15/6 12/16/6 19/14/6
f 11/19/5 15/18/5 20/17/5
f 11/19/5 5/20/5 15/18/5
f 12/15/4 17/14/4 19/13/4
f 12/15/4 9/16/4 17/14/4
f 10/19/3 20/18/3 18/17/3
f 10/19/3 11/20/3 20/18/3
f 22/23/5 4/22/5 21/21/5
f 4/22/5 3/24/5 21/21/5
f 1/24/3 23/21/3 3/22/3
f 23/21/3 21/23/3 3/22/3
f 2/24/6 24/21/6 1/22/6
f 24/21/6 23/23/6 1/22/6
f 19/27/1 25/26/1 14/25/1
f 26/28/1 14/25/1 25/26/1
f 17/31/1 28/30/1 27/29/1
f 17/31/1 13/32/1 28/30/1
f 26/28/1 28/30/1 13/32/1
f 14/25/1 26/28/1 13/32/1
f 27/29/1 19/27/1 17/31/1
f 19/27/1 27/29/1 25/26/1
f 31/35/6 30/34/6 29/33/6
f 30/34/6 32/36/6 29/33/6
f 35/33/5 34/36/5 33/37/5
f 35/33/5 33/37/5 36/38/5
f 39/40/6 38/39/6 37/35/6
f 38/39/6 40/34/6 37/35/6
f 43/43/3 42/42/3 41/41/3
f 42/42/3 44/44/3 41/41/3
f 47/43/4 46/42/4 45/44/4
f 47/43/4 45/44/4 48/41/4
f 51/41/4 50/44/4 49/45/4
f 51/41/4 49/45/4 52/46/4
f 55/41/3 54/44/3 53/46/3
f 54/44/3 56/45/3 53/46/3
f 59/49/6 58/48/6 57/47/6
f 58/48/6 60/50/6 57/47/6
f 63/48/5 62/51/5 61/50/5
f 62/51/5 64/52/5 61/50/5
f 67/51/5 66/53/5 65/52/5
f 66/53/5 68/54/5 65/52/5
f 71/57/3 70/56/3 69/55/3
f 70/56/3 72/58/3 69/55/3
f 75/60/4 74/57/4 73/59/4
f 74/57/4 76/55/4 73/59/4
f 79/56/3 78/61/3 77/58/3
f 78/61/3 80/62/3 77/58/3
f 33/65/2 82/64/2 81/63/2
f 33/65/2 34/66/2 82/64/2
f 34/69/3 83/68/3 82/67/3
f 34/69/3 35/70/3 83/68/3
f 36/71/4 81/39/4 84/40/4
f 36/71/4 33/72/4 81/39/4
f 35/75/1 84/74/1 83/73/1
f 35/75/1 36/76/1 84/74/1
f 30/69/4 37/68/4 40/67/4
f 30/69/4 31/70/4 37/68/4
f 31/79/1 85/78/1 37/77/1
f 31/79/1 29/80/1 85/78/1
f 29/71/3 86/39/3 85/40/3
f 29/71/3 32/72/3 86/39/3
f 32/83/2 40/82/2 86/81/2
f 32/83/2 30/84/2 40/82/2
f 45/87/2 87/86/2 50/85/2
f 45/87/2 46/88/2 87/86/2
f 46/89/5 88/46/5 87/45/5
f 46/89/5 47/90/5 88/46/5
f 48/93/6 50/92/6 51/91/6
f 48/93/6 45/94/6 50/92/6
f 47/97/1 51/96/1 88/95/1
f 47/97/1 48/98/1 51/96/1
f 42/89/6 90/46/6 89/45/6
f 42/89/6 43/90/6 90/46/6
f 43/101/1 55/100/1 90/99/1
f 43/101/1 41/102/1 55/100/1
f 41/93/5 54/92/5 55/91/5
f 41/93/5 44/94/5 54/92/5
f 44/105/2 89/104/2 54/103/2
f 44/105/2 42/106/2 89/104/2
f 62/108/1 91/73/1 67/107/1
f 62/108/1 63/75/1 91/73/1
f 63/109/4 92/54/4 91/53/4
f 63/109/4 61/110/4 92/54/4
f 61/66/2 65/111/2 92/64/2
f 61/66/2 64/112/2 65/111/2
f 64/115/3 67/114/3 65/113/3
f 64/115/3 62/116/3 67/114/3
f 58/80/1 94/117/1 93/78/1
f 58/80/1 59/118/1 94/117/1
f 59/109/3 95/54/3 94/53/3
f 59/109/3 57/110/3 95/54/3
f 57/120/2 96/81/2 95/119/2
f 57/120/2 60/83/2 96/81/2
f 60/115/4 93/114/4 96/113/4
f 60/115/4 58/116/4 93/114/4
f 74/122/1 98/95/1 97/121/1
f 74/122/1 75/97/1 98/95/1
f 75/123/6 99/62/6 98/61/6
f 75/123/6 73/124/6 99/62/6
f 73/88/2 100/125/2 99/86/2
f 73/88/2 76/126/2 100/125/2
f 76/129/5 97/128/5 100/127/5
f 76/129/5 74/130/5 97/128/5
f 70/133/1 101/132/1 79/131/1
f 70/133/1 71/134/1 101/132/1
f 71/123/5 102/62/5 101/61/5
f 71/123/5 69/124/5 102/62/5
f 69/137/2 77/136/2 102/135/2
f 69/137/2 72/138/2 77/136/2
f 72/129/6 79/128/6 77/127/6
f 72/129/6 70/130/6 79/128/6
f 2/22/4 104/140/4 103/139/4
f 2/22/4 103/139/4 24/23/4
f 103/139/4 105/141/4 24/23/4
f 105/141/4 22/21/4 24/23/4
f 4/24/4 22/21/4 105/141/4
f 106/142/4 4/24/4 105/141/4
f 2/22/4 4/24/4 104/140/4
f 4/24/4 106/142/4 104/140/4
f 108/127/3 102/55/3 107/143/3
f 102/55/3 77/58/3 107/143/3
f 77/58/3 80/62/3 107/143/3
f 80/62/3 109/144/3 107/143/3
f 111/127/4 99/59/4 110/143/4
f 99/59/4 100/55/4 110/143/4
f 100/55/4 112/62/4 110/143/4
f 112/62/4 113/144/4 110/143/4
f 114/145/2 107/8/2 109/5/2
f 114/145/2 115/146/2 107/8/2
f 116/147/2 110/11/2 113/10/2
f 116/147/2 117/148/2 110/11/2
f 120/150/1 119/149/1 118/30/1
f 120/150/1 121/151/1 119/149/1
f 115/146/2 113/10/2 107/8/2
f 115/146/2 116/147/2 113/10/2
f 117/148/2 109/5/2 110/11/2
f 117/148/2 114/145/2 109/5/2
f 123/153/1 118/30/1 122/152/1
f 123/153/1 120/150/1 118/30/1
f 125/155/1 122/152/1 124/154/1
f 125/155/1 123/153/1 122/152/1
f 126/156/1 125/155/1 124/154/1
f 125/155/1 126/156/1 127/157/1
f 125/155/1 127/157/1 121/151/1
f 119/149/1 121/151/1 127/157/1
f 130/160/2 129/159/2 128/158/2
f 129/159/2 130/160/2 131/10/2
f 131/10/2 130/160/2 132/161/2
f 132/161/2 133/162/2 131/10/2
f 125/165/6 121/164/6 117/163/6
f 121/164/6 114/166/6 117/163/6
f 123/165/4 125/164/4 116/163/4
f 125/164/4 117/166/4 116/163/4
f 120/165/5 123/164/5 115/163/5
f 123/164/5 116/166/5 115/163/5
f 115/166/3 114/163/3 120/164/3
f 114/163/3 121/165/3 120/164/3
f 129/169/5 122/168/5 118/167/5
f 129/169/5 131/170/5 122/168/5
f 119/167/3 128/169/3 118/168/3
f 128/169/3 129/170/3 118/168/3
f 122/167/4 131/169/4 133/170/4
f 122/167/4 133/170/4 124/168/4
f 126/172/6 124/167/6 134/171/6
f 133/169/6 132/173/6 134/171/6
f 124/167/6 133/169/6 134/171/6
f 119/168/6 127/175/6 135/174/6
f 135/174/6 130/176/6 119/168/6
f 130/176/6 128/170/6 119/168/6
f 127/175/6 134/171/6 135/174/6
f 127/175/6 126/172/6 134/171/6
f 93/48/6 136/53/6 96/50/6
f 136/53/6 137/54/6 96/50/6
f 139/114/6 94/49/6 138/113/6
f 94/49/6 95/47/6 138/113/6
f 85/33/6 86/36/6 140/68/6
f 86/36/6 141/67/6 140/68/6
f 25/178/6 85/33/6 26/177/6
f 85/33/6 140/68/6 26/177/6
f 37/35/6 85/33/6 25/178/6
f 39/40/6 37/35/6 25/178/6
f 143/91/4 142/92/4 87/42/4
f 143/91/4 87/42/4 88/43/4
f 97/57/4 144/61/4 100/55/4
f 144/61/4 112/62/4 100/55/4
f 145/128/4 98/60/4 111/127/4
f 98/60/4 99/59/4 111/127/4
f 147/114/5 91/48/5 146/113/5
f 91/48/5 92/50/5 146/113/5
f 84/38/5 81/37/5 148/67/5
f 84/38/5 148/67/5 149/68/5
f 151/40/5 150/39/5 82/36/5
f 151/40/5 82/36/5 83/33/5
f 28/178/5 151/40/5 83/33/5
f 28/178/5 83/33/5 84/38/5
f 28/178/5 84/38/5 149/68/5
f 28/178/5 149/68/5 27/177/5
f 26/178/3 151/68/3 28/177/3
f 26/178/3 141/39/3 151/68/3
f 141/39/3 150/67/3 151/68/3
f 152/91/3 90/43/3 141/39/3
f 90/43/3 55/41/3 141/39/3
f 141/39/3 55/41/3 150/67/3
f 55/41/3 53/46/3 150/67/3
f 152/91/3 153/92/3 90/43/3
f 153/92/3 89/42/3 90/43/3
f 54/44/3 66/114/3 56/45/3
f 54/44/3 89/42/3 66/114/3
f 89/42/3 68/113/3 66/114/3
f 79/56/3 154/128/3 68/113/3
f 138/54/3 78/61/3 79/56/3
f 68/113/3 138/54/3 79/56/3
f 68/113/3 89/42/3 138/54/3
f 139/53/3 138/54/3 89/42/3
f 89/42/3 153/92/3 139/53/3
f 154/128/3 101/57/3 108/127/3
f 101/57/3 102/55/3 108/127/3
f 92/50/5 144/128/5 146/113/5
f 92/50/5 112/127/5 144/128/5
f 108/62/5 107/144/5 113/143/5
f 108/62/5 113/143/5 112/127/5
f 92/50/5 108/62/5 112/127/5
f 92/50/5 154/61/5 108/62/5
f 154/61/5 92/50/5 65/52/5
f 65/52/5 68/54/5 154/61/5
f 148/67/5 81/37/5 143/46/5
f 142/45/5 143/46/5 81/37/5
f 91/48/5 147/114/5 142/45/5
f 81/37/5 91/48/5 142/45/5
f 82/36/5 91/48/5 81/37/5
f 56/92/5 66/53/5 67/51/5
f 67/51/5 91/48/5 56/92/5
f 91/48/5 53/91/5 56/92/5
f 91/48/5 82/36/5 53/91/5
f 150/39/5 53/91/5 82/36/5
f 27/178/4 39/68/4 25/177/4
f 51/41/4 52/46/4 38/67/4
f 88/43/4 51/41/4 38/67/4
f 39/68/4 88/43/4 38/67/4
f 39/68/4 27/178/4 88/43/4
f 27/178/4 143/91/4 88/43/4
f 50/44/4 136/114/4 49/45/4
f 50/44/4 87/42/4 136/114/4
f 136/114/4 87/42/4 137/113/4
f 137/113/4 98/60/4 145/128/4
f 137/113/4 87/42/4 98/60/4
f 97/57/4 98/60/4 87/42/4
f 146/54/4 144/61/4 97/57/4
f 147/53/4 146/54/4 97/57/4
f 87/42/4 147/53/4 97/57/4
f 87/42/4 142/92/4 147/53/4
f 78/128/6 138/113/6 95/47/6
f 80/127/6 78/128/6 95/47/6
f 80/127/6 95/47/6 111/62/6
f 111/62/6 110/144/6 80/127/6
f 110/144/6 109/143/6 80/127/6
f 96/50/6 111/62/6 95/47/6
f 111/62/6 96/50/6 145/61/6
f 145/61/6 96/50/6 137/54/6
f 152/46/6 141/67/6 86/36/6
f 94/49/6 152/46/6 86/36/6
f 94/49/6 153/45/6 152/46/6
f 94/49/6 139/114/6 153/45/6
f 93/48/6 94/49/6 86/36/6
f 93/48/6 86/36/6 52/91/6
f 52/91/6 49/92/6 93/48/6
f 49/92/6 136/53/6 93/48/6
f 52/91/6 86/36/6 40/34/6
f 38/39/6 52/91/6 40/34/6

