# Blender v2.93.5 OBJ File: ''
# www.blender.org
mtllib Level2.1.mtl
o Level2.1
v -5.000000 6.999996 25.000002
v -5.000000 -0.000004 25.000000
v -5.000000 6.999999 5.000001
v -5.000000 -0.000001 5.000000
v -5.000000 -1.000004 25.000000
v -5.000000 -1.000001 5.000000
v 5.000000 -0.000001 5.000000
v 5.000000 -1.000001 5.000000
v 5.000000 -1.000004 25.000000
v 5.000000 -0.000004 25.000000
v 5.000000 6.999999 5.000001
v 5.000000 6.999996 25.000002
v 5.000000 -0.000006 35.000000
v -5.000000 -0.000006 35.000000
v -5.000000 6.999994 35.000000
v 5.000000 6.999994 35.000000
v 5.000000 0.000001 -5.000000
v -5.000000 0.000001 -5.000000
v -5.000000 7.000001 -4.999999
v 5.000000 7.000001 -4.999999
v 1.250000 6.999995 31.500002
v 1.250000 6.999995 29.000002
v -1.250000 6.999995 31.500002
v -1.250000 6.999995 29.000002
vt 10.000000 10.000000
vt 0.000000 10.000000
vt 0.000000 0.000000
vt 10.000000 0.000000
vt 30.000000 0.000000
vt 30.000000 1.000000
vt 10.000000 1.000000
vt 10.000000 0.000000
vt 40.000000 1.000000
vt 40.000000 8.000000
vt 30.000000 8.000000
vt 10.000000 30.000000
vt 10.000000 40.000000
vt 0.000000 40.000000
vt 0.000000 30.000000
vt 0.000000 1.000000
vt 10.000000 1.000000
vt 10.000000 8.000000
vt 0.000000 8.000000
vt 10.000000 0.000000
vt 10.000000 10.000000
vt 0.000000 10.000000
vt 0.000000 0.000000
vt 0.000000 1.000000
vt 0.000000 0.000000
vt 0.000000 1.000000
vt 10.000000 1.000000
vt 10.000000 8.000000
vt 0.000000 8.000000
vt 10.000000 1.000000
vt 10.000000 8.000000
vt 0.000000 8.000000
vt 0.000000 1.000000
vt 30.000000 1.000000
vt 30.000000 8.000000
vt 10.000000 8.000000
vt 0.000000 8.000000
vt 0.000000 1.000000
vt 10.000000 30.000000
vt 0.000000 30.000000
vt 6.250000 34.000000
vt 3.750000 34.000000
vt 40.000000 1.000000
vt 40.000000 8.000000
vt 0.000000 0.000000
vt 10.000000 0.000000
vt 0.000000 1.000000
vt 10.000000 40.000000
vt 0.000000 40.000000
vt 3.750000 36.500000
vt 6.250000 36.500000
vt 30.000000 0.000000
vn 0.0000 -1.0000 -0.0000
vn -1.0000 0.0000 0.0000
vn 0.0000 1.0000 0.0000
vn 0.0000 0.0000 -1.0000
vn 0.0000 0.0000 1.0000
vn 1.0000 0.0000 0.0000
usemtl Floor
s 1
f 11/1/1 3/2/1 19/3/1 20/4/1
f 9/5/2 10/6/2 7/7/2 8/8/2
f 13/9/2 16/10/2 12/11/2 10/6/2
f 2/12/3 14/13/3 13/14/3 10/15/3
f 13/16/4 14/17/4 15/18/4 16/19/4
f 18/20/3 4/21/3 7/22/3 17/23/3
f 8/8/5 7/7/5 4/24/5 6/25/5
f 14/26/6 2/27/6 1/28/6 15/29/6
f 17/30/5 20/31/5 19/32/5 18/33/5
f 2/27/6 4/34/6 3/35/6 1/28/6
f 7/7/2 11/36/2 20/37/2 17/38/2
f 12/39/1 1/40/1 3/2/1 11/1/1
f 10/6/2 12/11/2 11/36/2 7/7/2
f 22/41/1 24/42/1 1/40/1 12/39/1
f 4/34/6 18/43/6 19/44/6 3/35/6
f 9/45/4 5/46/4 2/27/4 10/47/4
f 16/48/1 15/49/1 23/50/1 21/51/1
f 15/49/1 1/40/1 24/42/1 23/50/1
f 21/51/1 22/41/1 12/39/1 16/48/1
f 5/46/6 6/52/6 4/34/6 2/27/6
