# ProBuilder 4.5.2
# https://unity3d.com/unity/features/worldbuilding/probuilder
# 12/5/2021 11:12:02 AM

mtllib ./MenuBox.mtl
o MenuBox

g MenuBox
v 30 0 20
v 30 0 -20
v -30 0 -20
v -30 0 20
v 30 20.0001 20
v 30 20.0001 -20
v -30 20.0001 -20
v -30 20.0001 20

vt -10 -1.110223E-16
vt 10 1.110223E-16
vt 10 20.0001
vt -30 0
vt -30 20.0001
vt 30 0
vt 30 20.0001
vt -10 20.0001
vt 30 10
vt -30 10
vt -30 -30
vt 30 -30

vn 0 1 0
vn -1 0 0
vn 0 0 -1
vn 0 0 1
vn 1 0 0
vn 0 -1 0

usemtl MenuBox
f 5/9/6 8/10/6 7/11/6 6/12/6
f 3/4/4 2/6/4 6/7/4 7/5/4
f 4/1/5 3/6/5 7/7/5 8/8/5
f 8/7/3 5/5/3 1/4/3 4/6/3
f 5/3/2 6/5/2 2/4/2 1/2/2
f 4/1/1 1/1/1 2/2/1 3/1/1

