# ProBuilder 4.5.2
# https://unity3d.com/unity/features/worldbuilding/probuilder
# 4/12/2022 2:18:24 PM

mtllib ./Level2.3.mtl
o Level2.3

g Level2.3
v -10 7 1
v -23.5 7 1
v -10 7 -12.5
v -10 17 -12.5
v -23.5 7 -12.5
v -23.5 17 -12.5
v -19 8 -8
v -19.25 8 -8.25
v -14.5 8 -8
v -14.25 8 -8.25
v -19 8 -3.5
v -19.25 8 -3.25
v -14.5 8 -3.5
v -14.25 8 -3.25
v -19 6 -8
v -19 6 -3.5
v -19.25 7 -3.25
v -19.25 7 -8.25
v -14.5 6 -8
v -14.25 7 -8.25
v -14.5 6 -3.5
v -14.25 7 -3.25
v -23.5 17 1
v -10 17 1
v -14.25 6 -3.25
v -14.25 6 -8.25
v -19.25 6 -3.25
v -19.25 6 -8.25
v -14.5 5 -3.25
v -17.5 5 -8.25
v -16 5 -8.25
v -14.25 5 -8.25
v -14.25 5 -3.25
v -19.25 5 -3.25
v -16 5 -3.25
v -19.25 5 -8.25
v -14.5 3.5 -1.75
v -14.5 5 -1.75
v -16 5 -1.75
v -16 3.5 -1.75
v -16 3.5 -3.25
v -19.25 3.5 -3.25
v -19.25 3.5 -8.25
v -17.5 3.5 -8.25
v -17.5 3.5 -9.75
v -17.5 5 -9.75
v -16 5 -9.75
v -16 3.5 -9.75
v -16 3.5 -8.25
v -14.25 3.5 -3.25
v -14.5 3.5 -3.25
v -14.25 3.5 -8.25
v -19.25 2.5 -3.25
v -19.25 2.5 -6.5
v -19.25 2.5 -8
v -19.25 2.5 -8.25
v -19.25 1 -3.25
v -19.25 1 -6.5
v -20.75 1 -6.5
v -20.75 2.5 -6.5
v -20.75 2.5 -8
v -20.75 1 -8
v -14.25 1 -8.25
v -14.25 2.5 -8.25
v -14.25 2.5 -5
v -14.25 1 -5
v -12.75 1 -5
v -12.75 2.5 -5
v -12.75 2.5 -3.5
v -12.75 1 -3.5
v -14.25 1 -3.5
v -14.25 2.5 -3.5
v -14.25 2.5 -3.25
v -14.25 1 -3.25
v -19.25 1 -8
v -19.25 1 -8.25
v -16 0 -3.25
v -14.25 0 -3.25
v -16 -1.5 -3.25
v -14.25 -1.5 -3.25
v -17.5 0 -1.75
v -16 0 -1.75
v -17.5 -1.5 -1.75
v -16 -1.5 -1.75
v -17.5 0 -3.25
v -17.5 -1.5 -3.25
v -17.5 0 -9.75
v -19 0 -9.75
v -17.5 -1.5 -9.75
v -19 -1.5 -9.75
v -14.25 0 -8.25
v -17.5 0 -8.25
v -14.25 -1.5 -8.25
v -17.5 -1.5 -8.25
v -19.25 0 -3.25
v -19.25 -1.5 -3.25
v -19 0 -8.25
v -19.25 0 -8.25
v -19 -1.5 -8.25
v -19.25 -1.5 -8.25
v -20.75 -2.5 -5
v -20.75 -2.5 -3.5
v -20.75 -4 -5
v -20.75 -4 -3.5
v -19.25 -2.5 -8.25
v -19.25 -2.5 -5
v -19.25 -4 -8.25
v -19.25 -4 -5
v -14.25 -2.5 -6.5
v -14.25 -4 -6.5
v -12.75 -2.5 -5
v -12.75 -2.5 -6.5
v -12.75 -4 -5
v -12.75 -4 -6.5
v -14.25 -2.5 -3.25
v -14.25 -2.5 -5
v -14.25 -4 -3.25
v -14.25 -4 -5
v -19.25 -2.5 -3.5
v -19.25 -2.5 -3.25
v -19.25 -4 -3.5
v -19.25 -4 -3.25
v -14.25 -2.5 -8.25
v -14.25 -4 -8.25
v -14.25 -7 -3.25
v -19.25 -7 -3.25
v -19.25 -7 -8.25
v -14.25 -7 -8.25
v -10 16 -4
v -10 9 -4
v -10 9 -7.5
v -10 16 -7.5
v -18.75 -7 -3.75
v -18.75 -7 -7.75
v -14.75 -7 -7.75
v -14.75 -7 -3.75
v -19.25 -7.5 -8.25
v -19.25 -7.5 -3.25
v -18.75 -7.5 -7.75
v -18.75 -7.5 -3.75
v -14.25 -7.5 -8.25
v -14.75 -7.5 -7.75
v -14.25 -7.5 -3.25
v -14.75 -7.5 -3.75
v -18 -7.5 -3.25
v -15.5 -7.5 -3.25
v -14.25 -12.5 -3.25
v -14.25 -12.5 -8.25
v -19.25 -12.5 -3.25
v -17.99997 -12.4999 -3.250071
v -15.5 -12.5 -3.25
v -19.25 -12.5 -8.25
v -15.50004 -8 -3.250071
v -17.99997 -8 -3.250071
v -18 -12.5 -3
v -18 -8 -3
v -15.5 -8 -3
v -15.5 -12.5 -3
v -19.25 -14.25 -3.25
v -19.25 -14.25 -8.25
v -17.99997 -14.25 -3.250071
v -15.5 -14.25 -3.25
v -14.25 -14.25 -8.25
v -14.25 -14.25 -3.25
v -18.75 17 -7.75
v -14.75 17 -7.75
v -18.75 17 -3.75
v -14.75 17 -3.75
v -14.75 19.25 -3.75
v -18.75 19.25 -3.75
v -18.75 19.25 -7.75
v -14.75 19.25 -7.75
v -16 -12.5 -8.25
v -17.5 -12.5 -8.25
v -17.5 -12.5 -9.75
v -16 -12.5 -9.75
v -17.5 -11 -9.75
v -16 -11 -9.75
v -16 -11 -8.2499
v -17.5 -11 -8.2499

vt 0.6625481 4.212551E-07
vt 0.3312596 8.425101E-07
vt 0.6625481 0.2453993
vt 0.3312596 0.2453998
vt 0 0
vt 0.1268016 0.3521549
vt 0.1329365 0.34602
vt 0.01637205 0.3521549
vt 0.0102371 0.34602
vt 0.1268016 0.4625844
vt 0.1329365 0.4687194
vt 0.01637205 0.4625844
vt 0.0102371 0.4687194
vt 0.1268012 0.4717869
vt 0.0163717 0.4717869
vt 0.1268012 0.5208666
vt 0.0163717 0.5208666
vt 0.1329365 0.318413
vt 0.0102371 0.3184128
vt 0.1329365 0.3429529
vt 0.0102371 0.3429527
vt 0 0.2453989
vt 0.1268012 0.5300691
vt 0.1268012 0.6404986
vt 0.1329361 0.6466336
vt 0.1329361 0.5239341
vt 0.01637152 0.6404986
vt 0.01023653 0.6466336
vt 0.01637152 0.5300691
vt 0.01023653 0.5239341
vt 0.5347769 0.6174923
vt 0.1605436 0.6420321
vt 0.3261878 0.6174923
vt 0.3629977 0.6174923
vt 0.4059425 0.6174923
vt 0.5286419 0.6174923
vt 0.5286419 0.6420321
vt 0.6513413 0.6420321
vt 0.6513413 0.6174923
vt 0.5715867 0.6174923
vt 0.2832431 0.6420321
vt 0.2832431 0.6174923
vt 0.4059425 0.6420321
vt 0.2915629 0.9477006
vt 0.2915629 0.9108908
vt 0.2547531 0.9108908
vt 0.2547531 0.9477006
vt 0.5715867 0.5806825
vt 0.1605436 0.5806825
vt 0.2832431 0.5806825
vt 0.3261878 0.5806825
vt 0.3629977 0.5806825
vt 0.5286419 0.5806825
vt 0.5347769 0.5806825
vt 0.6513413 0.5806825
vt 0.4059425 0.5806825
vt 0.1605436 0.5561426
vt 0.2402983 0.5561426
vt 0.2771081 0.5561426
vt 0.2832431 0.5561426
vt 0.1605436 0.5193328
vt 0.2402983 0.5193328
vt 0.4059425 0.5193328
vt 0.4059425 0.5561426
vt 0.4856971 0.5561426
vt 0.4856971 0.5193328
vt 0.522507 0.5193328
vt 0.522507 0.5561426
vt 0.5286419 0.5561426
vt 0.5286419 0.5193328
vt 0.2771081 0.5193328
vt 0.2832431 0.5193328
vt 0.5715867 0.4947928
vt 0.5286419 0.4947928
vt 0.5715867 0.457983
vt 0.5286419 0.457983
vt 0.6083965 0.4947928
vt 0.6083965 0.457983
vt 0.4059425 0.4947928
vt 0.3261878 0.4947928
vt 0.4059425 0.457983
vt 0.3261878 0.457983
vt 0.6513413 0.4947928
vt 0.6513413 0.457983
vt 0.289378 0.4947928
vt 0.2832431 0.4947928
vt 0.289378 0.457983
vt 0.2832431 0.457983
vt 0.2832431 0.4334431
vt 0.2034884 0.4334431
vt 0.2832431 0.3966333
vt 0.2034884 0.3966333
vt 0.4488873 0.4334431
vt 0.4488873 0.3966333
vt 0.5286419 0.4334431
vt 0.4856971 0.4334431
vt 0.5286419 0.3966333
vt 0.4856971 0.3966333
vt 0.1666786 0.4334431
vt 0.1605436 0.4334431
vt 0.1666786 0.3966333
vt 0.1605436 0.3966333
vt 0.4059425 0.4334431
vt 0.4059425 0.3966333
vt 0.5286419 0.3230137
vt 0.1605436 0.3230137
vt 0.2832431 0.3230137
vt 0.4059425 0.3230137
vt 0.2179433 0.9108915
vt 0.2179433 0.8740817
vt 0.2547531 0.8740817
vt 0.2179433 0.9477006
vt 0.1811334 0.9108908
vt 0.1811334 0.9477006
vt 0.2179433 0.9845112
vt 0.2547531 0.9845112
vt 0.9937505 8.425101E-07
vt 0.9937505 0.2453997
vt 0.8709359 0.220859
vt 0.8709359 0.04907982
vt 0.7850465 0.04907982
vt 0.7850465 0.220859
vt 0.662462 0.2453989
vt 0.662462 4.680612E-08
vt 0.1381879 0.8127325
vt 0.1381879 0.6900331
vt 0.1259179 0.8004626
vt 0.1259179 0.702303
vt 0.01548845 0.6900331
vt 0.01548845 0.8127325
vt 0.02775839 0.702303
vt 0.02775839 0.8004626
vt 0.01548845 0.8311375
vt 0.01548845 0.9538367
vt 0.02775839 0.8434074
vt 0.02775839 0.9415668
vt 0.1381879 0.8311375
vt 0.1259179 0.8434074
vt 0.1381879 0.9538367
vt 0.1259179 0.9415668
vt 0.04616329 0.9538367
vt 0.107513 0.9538367
vt 0.7486175 0.7391123
vt 0.6259181 0.7391123
vt 0.6259181 0.8618118
vt 0.871317 0.7391123
vt 0.8406414 0.7391147
vt 0.7792924 0.7391123
vt 0.9940164 0.7391123
vt 0.871317 0.8618118
vt 0.7486175 0.8618118
vt 0.7792932 0.8495418
vt 0.7792924 0.8618118
vt 0.8406414 0.8495418
vt 0.8406421 0.8618118
vt 0.9940164 0.8618118
vt 0.02775839 0.8158
vt 0.1259179 0.8158
vt 0.02775839 0.82807
vt 0.1259179 0.82807
vt 0.1605436 0.457983
vt 0.1605436 0.4947928
vt 0.6513413 0.3966333
vt 0.6513413 0.4334431
vt 0.6513413 0.3230137
vt 0.6513413 0.5193328
vt 0.6513413 0.5561426
vt 0.6504604 0.8679461
vt 0.7608879 0.8679456
vt 0.650458 0.8740828
vt 0.7608875 0.8740823
vt 0.8222368 0.8679456
vt 0.8222372 0.8740824
vt 0.9326667 0.8679476
vt 0.9326667 0.8740826
vt 0.9940156 0.8679456
vt 0.9940164 0.8740824
vt 0.871317 0.6961675
vt 0.9940164 0.6961675
vt 0.8406414 0.6961675
vt 0.7792924 0.6961675
vt 0.6259181 0.6961675
vt 0.7486175 0.6961675
vt 0.6625769 0.6502007
vt 0.6625769 0.3189123
vt 0.7791413 0.5336362
vt 0.7791413 0.4354767
vt 0.9938654 0.6502007
vt 0.8773009 0.5336362
vt 0.9938654 0.3189123
vt 0.8773009 0.4354767
vt 0.4265315 0.7513791
vt 0.328372 0.7513791
vt 0.4265315 0.6961607
vt 0.328372 0.6961607
vt 0.328372 0.8495424
vt 0.4265315 0.8495424
vt 0.328372 0.9047644
vt 0.4265315 0.9047644
vt 0.2731572 0.7514192
vt 0.2731572 0.8495787
vt 0.4817463 0.8495787
vt 0.4817463 0.7514191
vt 0.5032187 0.7391123
vt 0.5032187 0.6961675
vt 0.5829733 0.7391123
vt 0.5461635 0.7391123
vt 0.5032187 0.8618118
vt 0.5829733 0.7759221
vt 0.5461635 0.7759221

vn 0 0 -1
vn 0 0 1
vn 1 0 0
vn 0 1 0
vn -1 0 0
vn 0 -1 0
vn 0 0.9999999 0.0004004298

usemtl Floor
f 11/10/4 7/6/4 12/11/4
f 7/6/4 8/7/4 12/11/4
f 7/6/4 9/8/4 8/7/4
f 9/8/4 10/9/4 8/7/4
f 13/12/4 11/10/4 14/13/4
f 11/10/4 12/11/4 14/13/4
f 9/8/4 13/12/4 10/9/4
f 13/12/4 14/13/4 10/9/4
f 24/118/5 129/119/5 130/120/5
f 24/118/5 130/120/5 1/117/5
f 130/120/5 131/121/5 1/117/5
f 131/121/5 3/124/5 1/117/5
f 4/123/5 3/124/5 131/121/5
f 132/122/5 4/123/5 131/121/5
f 24/118/5 4/123/5 129/119/5
f 4/123/5 132/122/5 129/119/5
f 107/91/3 108/92/3 127/107/3
f 108/92/3 121/101/3 127/107/3
f 121/101/3 122/102/3 127/107/3
f 122/102/3 126/106/3 127/107/3
f 117/97/5 118/98/5 125/105/5
f 118/98/5 110/94/5 125/105/5
f 110/94/5 124/104/5 125/105/5
f 124/104/5 128/108/5 125/105/5
f 146/142/6 144/140/6 143/139/6
f 144/140/6 146/142/6 145/141/6
f 144/140/6 145/141/6 140/136/6
f 138/134/6 140/136/6 145/141/6
f 146/153/1 143/151/1 153/152/1
f 147/143/1 151/148/1 153/152/1
f 143/151/1 147/143/1 153/152/1
f 138/150/1 145/155/1 154/154/1
f 154/154/1 150/147/1 138/150/1
f 150/147/1 149/146/1 138/150/1
f 25/37/1 35/40/1 27/38/1
f 35/40/1 34/39/1 27/38/1
f 29/31/1 35/40/1 25/37/1
f 33/36/1 29/31/1 25/37/1
f 28/41/2 36/42/2 30/33/2
f 28/41/2 30/33/2 31/34/2
f 28/41/2 31/34/2 32/35/2
f 28/41/2 32/35/2 26/43/2
f 27/32/3 36/42/3 28/41/3
f 27/32/3 42/49/3 36/42/3
f 42/49/3 43/50/3 36/42/3
f 53/57/3 54/58/3 42/49/3
f 54/58/3 55/59/3 42/49/3
f 42/49/3 55/59/3 43/50/3
f 55/59/3 56/60/3 43/50/3
f 75/71/3 98/86/3 76/72/3
f 75/71/3 58/62/3 98/86/3
f 58/62/3 100/88/3 98/86/3
f 119/99/3 105/89/3 100/88/3
f 96/161/3 120/100/3 119/99/3
f 100/88/3 96/161/3 119/99/3
f 100/88/3 58/62/3 96/161/3
f 95/162/3 96/161/3 58/62/3
f 58/62/3 57/61/3 95/162/3
f 94/82/2 123/103/2 93/81/2
f 94/82/2 124/104/2 123/103/2
f 107/91/2 127/107/2 128/108/2
f 107/91/2 128/108/2 124/104/2
f 94/82/2 107/91/2 124/104/2
f 94/82/2 105/89/2 107/91/2
f 105/89/2 94/82/2 99/87/2
f 99/87/2 100/88/2 105/89/2
f 52/56/2 49/52/2 64/64/2
f 63/63/2 64/64/2 49/52/2
f 92/80/2 91/79/2 63/63/2
f 49/52/2 92/80/2 63/63/2
f 44/51/2 92/80/2 49/52/2
f 76/72/2 98/86/2 97/85/2
f 97/85/2 92/80/2 76/72/2
f 92/80/2 56/60/2 76/72/2
f 92/80/2 44/51/2 56/60/2
f 43/50/2 56/60/2 44/51/2
f 26/43/5 33/36/5 25/37/5
f 72/68/5 73/69/5 50/53/5
f 65/65/5 72/68/5 50/53/5
f 33/36/5 65/65/5 50/53/5
f 33/36/5 26/43/5 65/65/5
f 26/43/5 64/64/5 65/65/5
f 71/67/5 78/74/5 74/70/5
f 71/67/5 66/66/5 78/74/5
f 78/74/5 66/66/5 80/76/5
f 80/76/5 116/96/5 115/95/5
f 80/76/5 66/66/5 116/96/5
f 109/93/5 116/96/5 66/66/5
f 93/81/5 123/103/5 109/93/5
f 91/79/5 93/81/5 109/93/5
f 66/66/5 91/79/5 109/93/5
f 66/66/5 63/63/5 91/79/5
f 120/164/1 96/84/1 86/78/1
f 122/163/1 120/164/1 86/78/1
f 122/163/1 86/78/1 117/97/1
f 117/97/1 125/105/1 122/163/1
f 125/105/1 126/165/1 122/163/1
f 79/75/1 117/97/1 86/78/1
f 117/97/1 79/75/1 115/95/1
f 115/95/1 79/75/1 80/76/1
f 53/167/1 42/55/1 41/48/1
f 85/77/1 53/167/1 41/48/1
f 85/77/1 57/166/1 53/167/1
f 85/77/1 95/83/1 57/166/1
f 77/73/1 85/77/1 41/48/1
f 77/73/1 41/48/1 73/69/1
f 73/69/1 74/70/1 77/73/1
f 74/70/1 78/74/1 77/73/1
f 73/69/1 41/48/1 51/54/1
f 50/53/1 73/69/1 51/54/1
f 173/206/2 163/182/2 148/144/2
f 173/206/2 174/207/2 163/182/2
f 163/182/2 174/207/2 160/205/2
f 174/207/2 152/204/2 160/205/2
f 11/17/3 16/15/3 15/14/3
f 15/14/3 7/16/3 11/17/3
f 8/21/5 18/19/5 17/18/5
f 17/18/5 12/20/5 8/21/5
f 7/17/2 15/15/2 19/14/2
f 19/14/2 9/16/2 7/17/2
f 10/21/1 20/19/1 18/18/1
f 18/18/1 8/20/1 10/21/1
f 13/17/1 21/15/1 16/14/1
f 16/14/1 11/16/1 13/17/1
f 12/21/2 17/19/2 22/18/2
f 22/18/2 14/20/2 12/21/2
f 9/17/5 19/15/5 21/14/5
f 21/14/5 13/16/5 9/17/5
f 14/21/3 22/19/3 20/18/3
f 20/18/3 10/20/3 14/21/3
f 5/2/2 3/1/2 4/3/2
f 4/3/2 6/4/2 5/2/2
f 6/4/3 23/22/3 2/5/3
f 2/5/3 5/2/3 6/4/3
f 23/4/1 24/3/1 1/1/1
f 1/1/1 2/2/1 23/4/1
f 16/27/6 21/24/6 25/25/6
f 25/25/6 27/28/6 16/27/6
f 15/29/6 28/30/6 26/26/6
f 26/26/6 19/23/6 15/29/6
f 27/28/6 28/30/6 15/29/6
f 15/29/6 16/27/6 27/28/6
f 25/25/6 21/24/6 19/23/6
f 19/23/6 26/26/6 25/25/6
f 39/46/1 38/45/1 37/44/1
f 37/44/1 40/47/1 39/46/1
f 46/45/2 45/44/2 48/47/2
f 48/47/2 47/46/2 46/45/2
f 29/31/1 33/36/1 50/53/1
f 50/53/1 51/54/1 29/31/1
f 61/46/3 60/45/3 59/44/3
f 59/44/3 62/47/3 61/46/3
f 68/45/5 67/44/5 70/47/5
f 70/47/5 69/46/5 68/45/5
f 72/68/5 71/67/5 74/70/5
f 74/70/5 73/69/5 72/68/5
f 56/60/3 55/59/3 75/71/3
f 75/71/3 76/72/3 56/60/3
f 83/47/1 81/46/1 82/45/1
f 82/45/1 84/44/1 83/47/1
f 89/47/2 87/46/2 88/45/2
f 88/45/2 90/44/2 89/47/2
f 99/87/2 97/85/2 98/86/2
f 98/86/2 100/88/2 99/87/2
f 103/47/3 101/46/3 102/45/3
f 102/45/3 104/44/3 103/47/3
f 113/47/5 111/46/5 112/45/5
f 112/45/5 114/44/5 113/47/5
f 121/101/3 119/99/3 120/100/3
f 120/100/3 122/102/3 121/101/3
f 45/111/4 44/46/4 49/109/4
f 49/109/4 48/110/4 45/111/4
f 46/109/3 30/46/3 44/47/3
f 44/47/3 45/112/3 46/109/3
f 48/112/5 49/114/5 31/113/5
f 31/113/5 47/109/5 48/112/5
f 47/47/6 31/116/6 30/115/6
f 30/115/6 46/112/6 47/47/6
f 38/109/5 29/46/5 51/47/5
f 51/47/5 37/112/5 38/109/5
f 39/47/6 35/116/6 29/115/6
f 29/115/6 38/112/6 39/47/6
f 40/112/3 41/114/3 35/113/3
f 35/113/3 39/109/3 40/112/3
f 37/109/4 51/110/4 41/111/4
f 41/111/4 40/46/4 37/109/4
f 67/111/4 66/46/4 71/109/4
f 71/109/4 70/110/4 67/111/4
f 68/109/2 65/46/2 66/47/2
f 66/47/2 67/112/2 68/109/2
f 70/112/1 71/114/1 72/113/1
f 72/113/1 69/109/1 70/112/1
f 69/47/6 72/116/6 65/115/6
f 65/115/6 68/112/6 69/47/6
f 60/109/1 54/46/1 58/47/1
f 58/47/1 59/112/1 60/109/1
f 61/47/6 55/116/6 54/115/6
f 54/115/6 60/112/6 61/47/6
f 62/112/2 75/114/2 55/113/2
f 55/113/2 61/109/2 62/112/2
f 59/111/4 58/46/4 75/109/4
f 75/109/4 62/110/4 59/111/4
f 87/47/6 92/116/6 97/115/6
f 97/115/6 88/112/6 87/47/6
f 89/112/5 94/114/5 92/113/5
f 92/113/5 87/109/5 89/112/5
f 90/111/4 99/46/4 94/109/4
f 94/109/4 89/110/4 90/111/4
f 88/109/3 97/46/3 99/47/3
f 99/47/3 90/112/3 88/109/3
f 81/47/6 85/116/6 77/115/6
f 77/115/6 82/112/6 81/47/6
f 83/112/3 86/114/3 85/113/3
f 85/113/3 81/109/3 83/112/3
f 84/109/4 79/110/4 86/111/4
f 86/111/4 83/46/4 84/109/4
f 82/109/5 77/46/5 79/47/5
f 79/47/5 84/112/5 82/109/5
f 111/47/6 116/116/6 109/115/6
f 109/115/6 112/112/6 111/47/6
f 113/112/1 118/114/1 116/113/1
f 116/113/1 111/109/1 113/112/1
f 114/111/4 110/46/4 118/109/4
f 118/109/4 113/110/4 114/111/4
f 112/109/2 109/46/2 110/47/2
f 110/47/2 114/112/2 112/109/2
f 101/47/6 106/116/6 119/115/6
f 119/115/6 102/112/6 101/47/6
f 103/112/2 108/114/2 106/113/2
f 106/113/2 101/109/2 103/112/2
f 104/111/4 121/46/4 108/109/4
f 108/109/4 103/110/4 104/111/4
f 102/109/1 119/46/1 121/47/1
f 121/47/1 104/112/1 102/109/1
f 134/128/4 127/126/4 126/125/4
f 126/125/4 133/127/4 134/128/4
f 136/132/4 125/130/4 128/129/4
f 128/129/4 135/131/4 136/132/4
f 140/136/6 138/134/6 137/133/6
f 137/133/6 139/135/6 140/136/6
f 135/131/4 128/129/4 127/126/4
f 127/126/4 134/128/4 135/131/4
f 133/127/4 126/125/4 125/130/4
f 125/130/4 136/132/4 133/127/4
f 139/135/6 137/133/6 141/137/6
f 141/137/6 142/138/6 139/135/6
f 142/138/6 141/137/6 143/139/6
f 143/139/6 144/140/6 142/138/6
f 136/159/1 144/157/1 140/158/1
f 140/158/1 133/160/1 136/159/1
f 135/159/5 142/157/5 144/158/5
f 144/158/5 136/160/5 135/159/5
f 134/159/2 139/157/2 142/158/2
f 142/158/2 135/160/2 134/159/2
f 139/158/3 134/160/3 133/159/3
f 133/159/3 140/157/3 139/158/3
f 137/156/3 138/150/3 149/146/3
f 149/146/3 152/149/3 137/156/3
f 141/145/5 148/144/5 147/143/5
f 147/143/5 143/151/5 141/145/5
f 146/153/1 153/152/1 154/154/1
f 154/154/1 145/155/1 146/153/1
f 79/75/1 77/73/1 78/74/1
f 78/74/1 80/76/1 79/75/1
f 96/84/1 95/83/1 85/77/1
f 85/77/1 86/78/1 96/84/1
f 34/39/1 35/40/1 41/48/1
f 41/48/1 42/55/1 34/39/1
f 64/64/5 63/63/5 66/66/5
f 66/66/5 65/65/5 64/64/5
f 110/94/5 109/93/5 123/103/5
f 123/103/5 124/104/5 110/94/5
f 117/97/5 115/95/5 116/96/5
f 116/96/5 118/98/5 117/97/5
f 93/81/2 91/79/2 92/80/2
f 92/80/2 94/82/2 93/81/2
f 31/34/2 49/52/2 52/56/2
f 52/56/2 32/35/2 31/34/2
f 36/42/2 43/50/2 44/51/2
f 44/51/2 30/33/2 36/42/2
f 54/58/3 53/57/3 57/61/3
f 57/61/3 58/62/3 54/58/3
f 107/91/3 105/89/3 106/90/3
f 106/90/3 108/92/3 107/91/3
f 155/170/3 150/168/3 154/169/3
f 154/169/3 156/171/3 155/170/3
f 156/171/6 154/169/6 153/172/6
f 153/172/6 157/173/6 156/171/6
f 157/173/5 153/172/5 151/174/5
f 151/174/5 158/175/5 157/173/5
f 158/175/4 151/174/4 150/176/4
f 150/176/4 155/177/7 158/175/4
f 160/179/3 152/149/3 149/146/3
f 149/146/3 159/178/3 160/179/3
f 159/178/1 149/146/1 150/147/1
f 150/147/1 161/180/1 159/178/1
f 161/180/1 150/147/1 151/148/1
f 151/148/1 162/181/1 161/180/1
f 164/183/5 147/143/5 148/144/5
f 148/144/5 163/182/5 164/183/5
f 162/181/1 151/148/1 147/143/1
f 147/143/1 164/183/1 162/181/1
f 165/186/6 6/184/6 4/185/6
f 4/185/6 166/187/6 165/186/6
f 167/189/6 23/188/6 6/184/6
f 6/184/6 165/186/6 167/189/6
f 168/191/6 24/190/6 23/188/6
f 23/188/6 167/189/6 168/191/6
f 166/187/6 4/185/6 24/190/6
f 24/190/6 168/191/6 166/187/6
f 169/194/1 168/192/1 167/193/1
f 167/193/1 170/195/1 169/194/1
f 171/198/2 165/196/2 166/197/2
f 166/197/2 172/199/2 171/198/2
f 172/200/5 166/193/5 168/196/5
f 168/196/5 169/201/5 172/200/5
f 170/202/3 167/197/3 165/192/3
f 165/192/3 171/203/3 170/202/3
f 169/197/6 170/196/6 171/193/6
f 171/193/6 172/192/6 169/197/6
f 177/45/2 175/44/2 176/47/2
f 176/47/2 178/46/2 177/45/2
f 179/209/2 141/145/2 137/208/2
f 137/208/2 180/210/2 179/209/2
f 179/209/2 173/206/2 148/144/2
f 148/144/2 141/145/2 179/209/2
f 152/204/2 174/207/2 180/210/2
f 180/210/2 137/208/2 152/204/2
f 175/111/4 174/46/4 173/109/4
f 173/109/4 176/110/4 175/111/4
f 177/109/3 180/46/3 174/47/3
f 174/47/3 175/112/3 177/109/3
f 178/47/6 179/116/6 180/115/6
f 180/115/6 177/112/6 178/47/6
f 176/112/5 173/114/5 179/113/5
f 179/113/5 178/109/5 176/112/5

